<svg width="20" height="20" viewBox="0 0 20 20" fill="none" xmlns="http://www.w3.org/2000/svg">
<path d="M2.10794 12.3073C1.93073 13.469 2.72301 14.2753 3.69305 14.6772C7.41202 16.2178 12.5873 16.2178 16.3063 14.6772C17.2763 14.2753 18.0686 13.469 17.8914 12.3073C17.7825 11.5934 17.244 10.9989 16.845 10.4184C16.3224 9.64877 16.2705 8.80918 16.2704 7.91602C16.2704 4.46423 13.4629 1.66602 9.99967 1.66602C6.53645 1.66602 3.72895 4.46423 3.72895 7.91602C3.72887 8.80918 3.67694 9.64877 3.15435 10.4184C2.75538 10.9989 2.21685 11.5934 2.10794 12.3073Z" stroke="#0756FF" stroke-width="1.25" stroke-linecap="round" stroke-linejoin="round"/>
<path d="M6.66699 15.834C7.04907 17.2717 8.39658 18.334 10.0003 18.334C11.6041 18.334 12.9516 17.2717 13.3337 15.834" stroke="#0756FF" stroke-width="1.25" stroke-linecap="round" stroke-linejoin="round"/>
</svg>
