<svg width="25" height="24" viewBox="0 0 25 24" fill="none" xmlns="http://www.w3.org/2000/svg">
<path d="M11.333 13H16.333M8.33301 13H8.34199M13.333 17H8.33301M16.333 17H16.324" stroke="#00A32E" stroke-width="1.5" stroke-linecap="round" stroke-linejoin="round"/>
<path d="M18.333 2V4M6.33301 2V4" stroke="#00A32E" stroke-width="1.5" stroke-linecap="round" stroke-linejoin="round"/>
<path d="M2.83301 12.2432C2.83301 7.88594 2.83301 5.70728 4.08513 4.35364C5.33725 3 7.3525 3 11.383 3H13.283C17.3135 3 19.3288 3 20.5809 4.35364C21.833 5.70728 21.833 7.88594 21.833 12.2432V12.7568C21.833 17.1141 21.833 19.2927 20.5809 20.6464C19.3288 22 17.3135 22 13.283 22H11.383C7.3525 22 5.33725 22 4.08513 20.6464C2.83301 19.2927 2.83301 17.1141 2.83301 12.7568V12.2432Z" stroke="#00A32E" stroke-width="1.5" stroke-linecap="round" stroke-linejoin="round"/>
<path d="M3.33301 8H21.333" stroke="#00A32E" stroke-width="1.5" stroke-linecap="round" stroke-linejoin="round"/>
</svg>
