<svg width="20" height="20" viewBox="0 0 20 20" fill="none" xmlns="http://www.w3.org/2000/svg">
<path d="M1.66699 5.0013C1.66699 3.42995 1.66699 2.64428 2.15515 2.15613C2.6433 1.66797 3.42898 1.66797 5.00033 1.66797C6.57168 1.66797 7.35735 1.66797 7.8455 2.15613C8.33366 2.64428 8.33366 3.42995 8.33366 5.0013V6.66797C8.33366 8.23932 8.33366 9.02497 7.8455 9.51314C7.35735 10.0013 6.57168 10.0013 5.00033 10.0013C3.42898 10.0013 2.6433 10.0013 2.15515 9.51314C1.66699 9.02497 1.66699 8.23932 1.66699 6.66797V5.0013Z" stroke="#0756FF" stroke-width="1.25"/>
<path d="M1.66699 15.832C1.66699 15.0554 1.66699 14.6672 1.79386 14.3609C1.96302 13.9525 2.28748 13.628 2.69585 13.4589C3.00214 13.332 3.39043 13.332 4.16699 13.332H5.83366C6.61023 13.332 6.99851 13.332 7.3048 13.4589C7.71318 13.628 8.03763 13.9525 8.20679 14.3609C8.33366 14.6672 8.33366 15.0554 8.33366 15.832C8.33366 16.6086 8.33366 16.9969 8.20679 17.3032C8.03763 17.7115 7.71318 18.036 7.3048 18.2052C6.99851 18.332 6.61023 18.332 5.83366 18.332H4.16699C3.39043 18.332 3.00214 18.332 2.69585 18.2052C2.28748 18.036 1.96302 17.7115 1.79386 17.3032C1.66699 16.9969 1.66699 16.6086 1.66699 15.832Z" stroke="#0756FF" stroke-width="1.25"/>
<path d="M11.667 13.3333C11.667 11.762 11.667 10.9763 12.1552 10.4882C12.6433 10 13.429 10 15.0003 10C16.5717 10 17.3573 10 17.8455 10.4882C18.3337 10.9763 18.3337 11.762 18.3337 13.3333V15C18.3337 16.5713 18.3337 17.357 17.8455 17.8452C17.3573 18.3333 16.5717 18.3333 15.0003 18.3333C13.429 18.3333 12.6433 18.3333 12.1552 17.8452C11.667 17.357 11.667 16.5713 11.667 15V13.3333Z" stroke="#0756FF" stroke-width="1.25"/>
<path d="M11.667 4.16797C11.667 3.3914 11.667 3.00312 11.7938 2.69683C11.963 2.28845 12.2875 1.96399 12.6958 1.79484C13.0022 1.66797 13.3904 1.66797 14.167 1.66797H15.8337C16.6102 1.66797 16.9985 1.66797 17.3048 1.79484C17.7132 1.96399 18.0377 2.28845 18.2068 2.69683C18.3337 3.00312 18.3337 3.3914 18.3337 4.16797C18.3337 4.94454 18.3337 5.33282 18.2068 5.63911C18.0377 6.04749 17.7132 6.37194 17.3048 6.5411C16.9985 6.66797 16.6102 6.66797 15.8337 6.66797H14.167C13.3904 6.66797 13.0022 6.66797 12.6958 6.5411C12.2875 6.37194 11.963 6.04749 11.7938 5.63911C11.667 5.33282 11.667 4.94454 11.667 4.16797Z" stroke="#0756FF" stroke-width="1.25"/>
</svg>
