<svg width="20" height="20" viewBox="0 0 20 20" fill="none" xmlns="http://www.w3.org/2000/svg">
<path d="M3.33301 18.334V17.5007C3.33301 15.943 3.33301 15.1642 3.66794 14.584C3.88737 14.2039 4.20296 13.8883 4.58301 13.6689C5.16313 13.334 5.94198 13.334 7.49967 13.334L9.99967 16.6673L12.4997 13.334C14.0573 13.334 14.8362 13.334 15.4163 13.6689C15.7964 13.8883 16.112 14.2039 16.3314 14.584C16.6663 15.1642 16.6663 15.943 16.6663 17.5007V18.334" stroke="#0756FF" stroke-width="1.25" stroke-linecap="round" stroke-linejoin="round"/>
<path d="M13.2808 6.66561L14.129 3.21921C14.3232 2.43027 13.7358 1.66602 12.9353 1.66602H7.06404C6.26355 1.66602 5.67619 2.43027 5.87036 3.21921L6.71853 6.66561M13.2808 6.66561V8.33227C13.2808 10.1733 11.8118 11.6656 9.99968 11.6656C8.18755 11.6656 6.71853 10.1733 6.71853 8.33227V6.66561M13.2808 6.66561H6.71853" stroke="#0756FF" stroke-width="1.25" stroke-linecap="round" stroke-linejoin="round"/>
<path d="M10.0002 3.33398V5.00024M10.8332 4.16712H9.16699" stroke="#0756FF" stroke-width="1.25" stroke-linecap="round" stroke-linejoin="round"/>
</svg>
