<svg width="24" height="23" viewBox="0 0 24 23" fill="none" xmlns="http://www.w3.org/2000/svg">
<g clip-path="url(#clip0_68_12826)">
<path d="M15.0694 10.942L5.58105 9.26758V21.6399C5.58105 22.2049 6.0391 22.6629 6.60412 22.6629H22.9766C23.5416 22.6629 23.9997 22.2049 23.9997 21.6399V17.0815L15.0694 10.942Z" fill="#185C37"/>
<path d="M15.0694 0.337891H6.60412C6.0391 0.337891 5.58105 0.795932 5.58105 1.36096V5.91929L15.0694 11.5007L20.0927 13.1751L23.9997 11.5007V5.91929L15.0694 0.337891Z" fill="#21A366"/>
<path d="M5.58105 5.91992H15.0694V11.5013H5.58105V5.91992Z" fill="#107C41"/>
<path opacity="0.1" d="M12.3719 4.80273H5.58105V18.7562H12.3719C12.9362 18.7544 13.3932 18.2974 13.395 17.7332V5.8258C13.3932 5.26154 12.9362 4.80457 12.3719 4.80273Z" fill="black"/>
<path opacity="0.2" d="M11.8138 5.36133H5.58105V19.3148H11.8138C12.3781 19.313 12.835 18.856 12.8369 18.2917V6.3844C12.835 5.82013 12.3781 5.36316 11.8138 5.36133Z" fill="black"/>
<path opacity="0.2" d="M11.8138 5.36133H5.58105V18.1985H11.8138C12.3781 18.1967 12.835 17.7397 12.8369 17.1755V6.3844C12.835 5.82013 12.3781 5.36316 11.8138 5.36133Z" fill="black"/>
<path opacity="0.2" d="M11.2557 5.36133H5.58105V18.1985H11.2557C11.8199 18.1967 12.2769 17.7397 12.2787 17.1755V6.3844C12.2769 5.82013 11.8199 5.36316 11.2557 5.36133Z" fill="black"/>
<path d="M1.02307 5.36133H11.256C11.821 5.36133 12.2791 5.81937 12.2791 6.3844V16.6173C12.2791 17.1823 11.821 17.6404 11.256 17.6404H1.02307C0.458041 17.6404 0 17.1824 0 16.6173V6.3844C0 5.81937 0.458041 5.36133 1.02307 5.36133Z" fill="url(#paint0_linear_68_12826)"/>
<path d="M3.16797 14.8252L5.32015 11.4903L3.34825 8.17383H4.93448L6.01057 10.2948C6.10993 10.4962 6.17801 10.6458 6.21486 10.7446H6.22881C6.2995 10.5839 6.37392 10.4278 6.45206 10.2763L7.60238 8.17495H9.05857L7.03643 11.4719L9.10993 14.8252H7.56053L6.31755 12.4972C6.259 12.3981 6.20932 12.2941 6.16909 12.1863H6.15068C6.11426 12.2919 6.06596 12.393 6.00667 12.4877L4.72686 14.8252H3.16797Z" fill="white"/>
<path d="M22.9765 0.337891H15.0693V5.91929H23.9996V1.36096C23.9996 0.795932 23.5415 0.337891 22.9765 0.337891Z" fill="#33C481"/>
<path d="M15.0703 11.5H24.0005V17.0814H15.0703V11.5Z" fill="#107C41"/>
</g>
<defs>
<linearGradient id="paint0_linear_68_12826" x1="2.13312" y1="4.56192" x2="10.1459" y2="18.4398" gradientUnits="userSpaceOnUse">
<stop stop-color="#18884F"/>
<stop offset="0.5" stop-color="#117E43"/>
<stop offset="1" stop-color="#0B6631"/>
</linearGradient>
<clipPath id="clip0_68_12826">
<rect width="24" height="22.3256" fill="white" transform="translate(0 0.337891)"/>
</clipPath>
</defs>
</svg>
