<svg width="25" height="24" viewBox="0 0 25 24" fill="none" xmlns="http://www.w3.org/2000/svg">
<path d="M17.666 2C17.666 2.50986 17.666 2.76479 17.7337 3.00236C17.7709 3.13286 17.823 3.25864 17.889 3.37723C18.0091 3.59309 18.1894 3.77336 18.5499 4.13388L20.5321 6.11612C20.8926 6.47664 21.0729 6.65691 21.2888 6.77701C21.4074 6.84298 21.5331 6.89509 21.6636 6.93228C21.9012 7 22.1561 7 22.666 7" stroke="#C10000" stroke-width="1.5" stroke-linecap="round" stroke-linejoin="round"/>
<path d="M12.3591 7L7.43126 11.9278C6.36649 12.9926 5.83411 13.525 5.70721 14.163C5.65228 14.4391 5.65228 14.7234 5.70721 14.9996C5.83411 15.6376 6.3665 16.17 7.43126 17.2348C8.49602 18.2995 9.02841 18.8319 9.66638 18.9588C9.94256 19.0137 10.2269 19.0137 10.5031 18.9588C11.141 18.8319 11.6734 18.2995 12.7382 17.2348L17.666 12.3069" stroke="#C10000" stroke-width="1.5" stroke-linecap="round" stroke-linejoin="round"/>
<path d="M11.666 6L18.666 13" stroke="#C10000" stroke-width="1.5" stroke-linecap="round" stroke-linejoin="round"/>
<path d="M8.66601 18.6372L7.49655 19.4725C7.02588 19.8087 6.79055 19.9768 6.53247 19.9971C6.43238 20.005 6.33168 19.9967 6.23425 19.9724C5.98303 19.91 5.77853 19.7055 5.36953 19.2965C4.96054 18.8875 4.75604 18.683 4.69357 18.4318C4.66934 18.3343 4.66101 18.2336 4.66889 18.1335C4.68921 17.8755 4.85731 17.6401 5.1935 17.1695L6.02883 16" stroke="#C10000" stroke-width="1.5" stroke-linecap="round" stroke-linejoin="round"/>
<path d="M14.166 8L19.166 4M16.666 10.5L20.666 5.5" stroke="#C10000" stroke-width="1.5" stroke-linejoin="round"/>
<path d="M5.16602 19.5L2.66602 22" stroke="#C10000" stroke-width="1.5" stroke-linecap="round" stroke-linejoin="round"/>
</svg>
