<svg width="20" height="20" viewBox="0 0 20 20" fill="none" xmlns="http://www.w3.org/2000/svg">
<path d="M15.5137 16.668H15.9222C16.8804 16.668 17.6426 16.2314 18.3269 15.621C20.0653 14.0701 15.9787 12.5013 14.5837 12.5013M12.917 4.22528C13.1062 4.18774 13.3027 4.16797 13.5043 4.16797C15.0209 4.16797 16.2503 5.28726 16.2503 6.66797C16.2503 8.04868 15.0209 9.16797 13.5043 9.16797C13.3027 9.16797 13.1062 9.14822 12.917 9.11064" stroke="#0756FF" stroke-width="1.25" stroke-linecap="round"/>
<path d="M3.73443 13.426C2.75195 13.9525 0.175949 15.0276 1.7449 16.3728C2.51133 17.03 3.36493 17.5 4.4381 17.5H10.5619C11.6351 17.5 12.4887 17.03 13.2551 16.3728C14.8241 15.0276 12.2481 13.9525 11.2656 13.426C8.96167 12.1913 6.03833 12.1913 3.73443 13.426Z" stroke="#0756FF" stroke-width="1.25"/>
<path d="M10.8337 6.2513C10.8337 8.09225 9.34124 9.58464 7.50033 9.58464C5.65938 9.58464 4.16699 8.09225 4.16699 6.2513C4.16699 4.41035 5.65938 2.91797 7.50033 2.91797C9.34124 2.91797 10.8337 4.41035 10.8337 6.2513Z" stroke="#0756FF" stroke-width="1.25"/>
</svg>
